<?xml version="1.0" encoding="utf-8"?>
<!-- Generator: Adobe Illustrator 23.0.5, SVG Export Plug-In . SVG Version: 6.00 Build 0)  -->
<svg version="1.1" id="Capa_1" xmlns="http://www.w3.org/2000/svg" xmlns:xlink="http://www.w3.org/1999/xlink" x="0px" y="0px"
	 viewBox="0 0 161.6 194.6" style="enable-background:new 0 0 161.6 194.6;" xml:space="preserve">
<style type="text/css">
	.st0{fill:none;stroke:#B3B3B3;stroke-miterlimit:10;}
	.st1{fill:url(#SVGID_1_);}
	.st2{fill:#61BF00;}
	.st3{opacity:0.2;}
	.st4{fill:#FFFFFF;}
	.st5{opacity:0.2;fill:#FFFFFF;enable-background:new    ;}
</style>
<line class="st0" x1="57.3" y1="163.2" x2="66.4" y2="206.4"/>
<line class="st0" x1="103.1" y1="162.1" x2="91.3" y2="207.4"/>
<line class="st0" x1="78" y1="167.1" x2="80" y2="215.1"/>
<title>Recurso 1globe</title>
<g id="f9db96e6-e270-40a4-acda-1b6d8c89354d">
	<g id="be16aee5-f6b9-41a9-8537-7c2fc3ef72ee">
		
			<linearGradient id="SVGID_1_" gradientUnits="userSpaceOnUse" x1="544.567" y1="254.6657" x2="544.567" y2="6.0257" gradientTransform="matrix(0.6675 0 0 0.6675 -282.6954 -4.0221)">
			<stop  offset="0" style="stop-color:#808080;stop-opacity:0.25"/>
			<stop  offset="0.54" style="stop-color:#808080;stop-opacity:0.12"/>
			<stop  offset="1" style="stop-color:#808080;stop-opacity:0.1"/>
		</linearGradient>
		<path class="st1" d="M161.6,83c0,45.8-38.3,83-79.1,83S0,128.8,0,83S41.8,0,82.5,0S161.6,37.2,161.6,83z"/>
		<path class="st2" d="M157.8,83c0,43.7-36.5,79.1-75.4,79.1S3.8,126.7,3.8,83S43.6,3.9,82.5,3.9S157.8,39.3,157.8,83z"/>
		<rect x="70.4" y="164.9" class="st2" width="17.5" height="6.1"/>
		<g class="st3">
			<path d="M82.5,3.6c-0.9,0-1.8,0-2.8,0.1c37.8,1.6,72.6,36.4,72.6,79s-34.8,77.4-72.5,79c0.9,0,1.9,0.1,2.8,0.1
				c38.9,0,75.4-35.4,75.4-79.1S121.3,3.6,82.5,3.6z"/>
		</g>
		<g class="st3">
			<path class="st4" d="M8.2,83c0-43.1,38.7-78.1,77-79.1h-1.7C44.7,3.9,4.9,39.3,4.9,83s39.8,79.1,78.7,79.1h1.7
				C46.9,161.1,8.2,126.1,8.2,83z"/>
		</g>
		<rect x="54.8" y="151" class="st2" width="50.2" height="16.4"/>
		<path class="st5" d="M54.8,9.6c0,0-59.7,68.2,0,146.7l19.7-0.1c0,0-54.4-64.8-2.5-151.5l-9.7,2.2L54.8,9.6z"/>
		<path class="st5" d="M106.7,8.6c0,0,59.7,69.2,0,147.7L87,156.2c0,0,54.4-65.4,2.5-152.1l9.7,1.9L106.7,8.6z"/>
	</g>
</g>
</svg>
